<svg width="303" height="68" viewBox="0 0 303 68" fill="none" xmlns="http://www.w3.org/2000/svg">
<path d="M33.4076 66.7441C51.7859 66.7441 66.6845 51.8436 66.6845 33.4629C66.6845 15.0823 51.7859 0.181763 33.4076 0.181763C15.0292 0.181763 0.130615 15.0823 0.130615 33.4629C0.130615 51.8436 15.0292 66.7441 33.4076 66.7441Z" fill="#EBF3FF"/>
<path d="M40.6069 20.5225L47.5081 31.4025C47.5636 31.4901 47.5947 31.5912 47.5977 31.6952C47.601 31.7989 47.5763 31.9016 47.5263 31.9925C47.476 32.0836 47.4025 32.1593 47.3131 32.2122C47.2239 32.2651 47.1218 32.2929 47.0181 32.2929C46.8643 32.2929 46.7167 32.3539 46.6081 32.4628C46.4992 32.5714 46.4382 32.719 46.4382 32.8728V44.9862C46.4382 45.14 46.3769 45.2876 46.2683 45.3962C46.1595 45.5051 46.0121 45.5661 45.8583 45.5661H44.6496C44.4958 45.5661 44.3482 45.5051 44.2396 45.3962C44.1308 45.2876 44.0697 45.14 44.0697 44.9862V32.9994C44.0697 32.8949 44.0407 32.7923 43.986 32.7033L38.4038 23.363C38.355 23.2813 38.2868 23.2127 38.2053 23.1637C38.1239 23.1145 38.0316 23.0861 37.9364 23.081C37.8415 23.0759 37.7468 23.0945 37.6604 23.1347C37.5742 23.1749 37.4993 23.2358 37.4421 23.312L31.5332 31.1616C31.4793 31.2337 31.4093 31.2923 31.3288 31.3327C31.2484 31.3731 31.1598 31.3942 31.0697 31.3944H11.1521C11.0456 31.3944 10.9412 31.365 10.8503 31.3094C10.7594 31.2539 10.6855 31.1744 10.6368 31.0797C10.5881 30.9849 10.5664 30.8787 10.5741 30.7726C10.5818 30.6662 10.6186 30.5641 10.6805 30.4775L17.8001 20.496C17.8539 20.421 17.9247 20.3598 18.0067 20.3176C18.0887 20.2753 18.1795 20.2532 18.2718 20.253H40.1189C40.2163 20.2537 40.3118 20.2787 40.397 20.3257C40.4823 20.3728 40.5544 20.4404 40.6069 20.5225Z" fill="#1E3F85"/>
<path d="M38.7244 32.2928H36.4988C36.1785 32.2928 35.9189 32.5526 35.9189 32.8728V37.6103C35.9189 37.9307 36.1785 38.1903 36.4988 38.1903H38.7244C39.0445 38.1903 39.3042 37.9307 39.3042 37.6103V32.8728C39.3042 32.5526 39.0445 32.2928 38.7244 32.2928Z" fill="#1E3F85"/>
<path d="M29.9998 33.1913H12.7304C12.5766 33.1913 12.4292 33.2524 12.3204 33.3612C12.2117 33.4699 12.1506 33.6175 12.1506 33.7713V44.88C12.1506 45.0338 12.2117 45.1814 12.3204 45.29C12.4292 45.3989 12.5766 45.4599 12.7304 45.4599H14.3414V48.6455H28.1867V45.4599H29.9998C30.1536 45.4599 30.301 45.3989 30.4098 45.29C30.5187 45.1814 30.5797 45.0338 30.5797 44.88V33.7713C30.5797 33.6175 30.5187 33.4699 30.4098 33.3612C30.301 33.2524 30.1536 33.1913 29.9998 33.1913Z" fill="#1E3F85"/>
<path d="M44.2351 1.98282C43.0384 2.8703 42.0708 4.03085 41.4134 5.36784C40.7557 6.70484 40.4268 8.17961 40.4544 9.66938C40.4817 11.1592 40.8646 12.6208 41.571 13.9327C42.2775 15.2446 43.2869 16.3687 44.5157 17.2115C45.7442 18.0543 47.1563 18.5913 48.6343 18.778C50.1126 18.9647 51.6137 18.7955 53.0133 18.2846C54.4128 17.7737 55.6701 16.9358 56.6804 15.8407C57.6906 14.7456 58.4247 13.425 58.8216 11.9888C54.9487 7.40096 49.9092 3.94396 44.2351 1.98282Z" fill="#FFE102"/>
<path d="M37.536 47.2773C37.3788 47.3917 37.2196 47.504 37.0603 47.6163C37.9083 48.0002 38.755 48.4141 39.6003 48.8579C46.6934 52.5805 49.4335 57.5182 50.0542 62.2863C54.4697 59.7348 58.2401 56.2027 61.0741 51.9624C63.9081 47.7221 65.7297 42.8872 66.3986 37.8309C61.531 37.8063 49.3926 38.713 37.536 47.2773Z" fill="#FFE102"/>
<path d="M37.0603 47.6163C22.284 40.9225 7.42194 43.0238 1.89484 44.1857C3.31651 48.356 5.55271 52.2022 8.47345 55.5007C15.4584 55.6028 27.1557 54.5348 37.0603 47.6163Z" fill="#FFED63"/>
<path d="M39.6105 48.8579C38.7652 48.4127 37.9185 47.9988 37.0705 47.6163C27.1699 54.5348 15.4684 55.6028 8.48553 55.5007C13.5697 61.2519 20.4852 65.0686 28.0608 66.3045C35.6364 67.5403 43.4062 66.1195 50.0542 62.2823C49.4335 57.5182 46.6934 52.5805 39.6105 48.8579Z" fill="#FFED63"/>
<path d="M65.5942 33.1873C65.1185 36.6281 64.022 43.4546 62.5948 46.5912C59.0462 54.3979 55.0403 59.3417 48.7107 62.9929C36.4172 70.0931 16.2383 66.1928 5.71701 50.4221C5.49242 50.0851 4.68183 52.2273 4.86967 52.4641C25.0547 77.2157 49.8194 67.7202 60.0283 55.3189C64.2732 50.1627 65.6983 43.4628 66.5763 36.8303C66.9091 34.3083 65.9822 34.5615 66.1537 33.3261C66.2006 32.9871 65.1328 32.7135 65.1062 32.9667L65.5942 33.1873Z" fill="#1E928A"/>
<path d="M59.4443 53.1707C59.4443 53.1707 78.5227 41.4534 74.2431 36.6546C69.9636 31.8558 59.4443 53.1707 59.4443 53.1707Z" fill="#1E928A"/>
<path d="M53.5457 59.7624C53.5457 59.7624 72.0258 61.9331 67.2256 56.3318C62.4253 50.7304 53.5457 59.7624 53.5457 59.7624Z" fill="#1E928A"/>
<path d="M65.3369 38.8376C65.3369 38.8376 75.8623 21.37 66.7886 22.2399C62.6479 22.636 65.3369 38.8376 65.3369 38.8376Z" fill="#1E928A"/>
<path d="M64.1976 45.5763C64.1976 45.5763 67.6094 27.1592 60.7919 28.1802C57.6884 28.656 62.9256 36.7098 64.1976 45.5763Z" fill="#1E928A"/>
<path d="M56.2714 45.6458C56.9309 49.152 57.9661 52.8093 57.129 56.3787C57.0902 56.4645 57.2801 56.683 57.3536 56.6565C57.356 56.6567 57.3585 56.6565 57.3607 56.6559C57.363 56.6552 57.3652 56.654 57.3671 56.6526C57.3691 56.651 57.3705 56.6491 57.3717 56.6471C57.373 56.6448 57.3736 56.6426 57.374 56.6401C57.9518 55.3557 58.4459 54.0304 58.8951 52.6969C59.6669 50.4078 60.3877 47.9533 60.3652 45.5171C60.3468 43.6793 59.6383 41.8108 57.5863 41.5658C55.3322 41.2942 56.0264 44.3409 56.2714 45.6458Z" fill="#1E928A"/>
<path d="M47.6143 64.5816C47.6143 64.5816 50.2849 49.6216 53.9601 53.9426C57.6353 58.2635 47.6143 64.5816 47.6143 64.5816Z" fill="#1E928A"/>
<path d="M96.4914 24C96.9181 24 97.3898 24.0337 97.9063 24.1011C98.4454 24.1685 98.8721 24.2583 99.1865 24.3706V27.1335H97.6705C96.7946 27.1335 96.3566 27.5715 96.3566 28.4476V30.3344H99.1865V33.4679H96.3566V46.6422H92.6508V33.4679H91V30.3344H92.6508V28.3465C92.6508 27.1111 92.9428 26.0778 93.5267 25.2467C94.1331 24.4156 95.1213 24 96.4914 24ZM105.924 29.9638C107.765 29.9638 109.147 30.3793 110.067 31.2104C110.988 32.0416 111.449 33.2208 111.449 34.7483V42.8011C111.449 43.1605 111.527 43.43 111.684 43.6097C111.864 43.7894 112.077 43.8793 112.325 43.8793H113.066V46.5074C112.482 46.8443 111.741 47.0128 110.842 47.0128C110.124 47.0128 109.506 46.8219 108.989 46.44C108.495 46.0357 108.158 45.519 107.979 44.8901H107.844C107.327 45.6089 106.755 46.148 106.126 46.5074C105.519 46.8443 104.711 47.0128 103.7 47.0128C102.667 47.0128 101.724 46.6759 100.87 46.002C100.017 45.3056 99.59 44.1151 99.59 42.4305C99.59 40.3414 100.297 38.8701 101.712 38.0166C103.127 37.163 105.126 36.7362 107.709 36.7362V35.0515C107.709 34.4001 107.586 33.8947 107.339 33.5353C107.091 33.1759 106.642 32.9962 105.991 32.9962C105.317 32.9962 104.823 33.1759 104.509 33.5353C104.217 33.8723 104.071 34.2653 104.071 34.7146V35.1863H100.399C100.376 35.074 100.365 34.8381 100.365 34.4787C100.365 33.131 100.87 32.0416 101.881 31.2104C102.892 30.3793 104.239 29.9638 105.924 29.9638ZM107.709 39.4317C104.857 39.4317 103.431 40.319 103.431 42.0935C103.431 43.3065 104.037 43.913 105.25 43.913C106.081 43.913 106.698 43.5873 107.103 42.9359C107.507 42.262 107.709 41.4084 107.709 40.3751V39.4317ZM121.52 29.9638C121.947 29.9638 122.295 29.9975 122.564 30.0649C122.834 30.1323 123.002 30.1772 123.07 30.1996V33.8049H121.756C120.857 33.8049 120.127 34.0969 119.566 34.6809C119.004 35.2649 118.724 36.2308 118.724 37.5786V46.6422H115.018V30.3344H118.084L118.522 32.7267H118.724C118.993 31.918 119.341 31.2554 119.768 30.7387C120.195 30.2221 120.779 29.9638 121.52 29.9638ZM140.115 29.9638C142.788 29.9638 144.124 31.7159 144.124 35.22V46.6422H140.419V36.2308C140.419 35.1975 140.273 34.4675 139.981 34.0407C139.689 33.5915 139.228 33.3668 138.599 33.3668C137.971 33.3668 137.431 33.6476 136.982 34.2092C136.556 34.7707 136.342 35.4895 136.342 36.3656V46.6422H132.67V36.2308C132.67 35.1975 132.513 34.4675 132.198 34.0407C131.906 33.5915 131.446 33.3668 130.817 33.3668C130.166 33.3668 129.627 33.6701 129.2 34.2766C128.796 34.8831 128.594 35.6692 128.594 36.6351V46.6422H124.888V30.3344H127.954L128.358 32.356H128.526C128.953 31.6372 129.492 31.0644 130.143 30.6377C130.795 30.1884 131.547 29.9638 132.401 29.9638C134.13 29.9638 135.298 30.7612 135.904 32.356C136.353 31.6597 136.937 31.0869 137.656 30.6377C138.375 30.1884 139.195 29.9638 140.115 29.9638ZM152.948 29.9638C154.925 29.9638 156.396 30.6601 157.362 32.0528C158.35 33.4455 158.844 35.6019 158.844 38.522V39.4317H150.59C150.613 40.9592 150.804 42.1047 151.163 42.8685C151.545 43.6097 152.185 43.9804 153.083 43.9804C153.734 43.9804 154.24 43.7108 154.599 43.1717C154.981 42.6101 155.172 41.8464 155.172 40.8805H158.844C158.844 42.9022 158.316 44.4296 157.261 45.4629C156.205 46.4962 154.813 47.0128 153.083 47.0128C148.816 47.0128 146.682 44.1825 146.682 38.522C146.682 32.8165 148.771 29.9638 152.948 29.9638ZM152.948 32.9962C152.185 32.9962 151.612 33.3107 151.23 33.9396C150.871 34.5686 150.669 35.5008 150.624 36.7362H154.97C154.97 35.5232 154.801 34.6023 154.464 33.9733C154.128 33.3219 153.622 32.9962 152.948 32.9962ZM168.073 29.9638C168.5 29.9638 168.848 29.9975 169.117 30.0649C169.387 30.1323 169.555 30.1772 169.623 30.1996V33.8049H168.309C167.411 33.8049 166.681 34.0969 166.119 34.6809C165.558 35.2649 165.277 36.2308 165.277 37.5786V46.6422H161.571V30.3344H164.637L165.075 32.7267H165.277C165.546 31.918 165.895 31.2554 166.321 30.7387C166.748 30.2221 167.332 29.9638 168.073 29.9638ZM176.798 29.9638C178.415 29.9638 179.74 30.3681 180.773 31.1768C181.806 31.9629 182.323 33.0411 182.323 34.4114L182.289 35.1189H178.516V35.0515C178.493 34.3777 178.325 33.8723 178.01 33.5353C177.696 33.1759 177.258 32.9962 176.697 32.9962C176.113 32.9962 175.641 33.1422 175.282 33.4342C174.945 33.7262 174.776 34.1193 174.776 34.6135C174.776 35.1975 175.012 35.6243 175.484 35.8939C175.955 36.141 176.697 36.3993 177.707 36.6688C178.74 36.9384 179.594 37.2192 180.268 37.5112C180.941 37.8032 181.514 38.2861 181.986 38.96C182.48 39.6339 182.727 40.5548 182.727 41.7229C182.727 45.2495 180.706 47.0128 176.663 47.0128C174.821 47.0128 173.373 46.5411 172.317 45.5977C171.261 44.6542 170.734 43.4076 170.734 41.8577L170.767 41.4533H174.574V41.6892C174.597 42.4754 174.821 43.0594 175.248 43.4413C175.675 43.8007 176.191 43.9804 176.798 43.9804C177.382 43.9804 177.887 43.8456 178.314 43.576C178.74 43.284 178.954 42.8348 178.954 42.2283C178.954 41.5544 178.695 41.0715 178.179 40.7795C177.685 40.4874 176.899 40.1842 175.821 39.8697C174.81 39.6002 173.979 39.3194 173.328 39.0274C172.676 38.7129 172.115 38.2412 171.643 37.6123C171.194 36.9608 170.969 36.0736 170.969 34.9504C170.969 33.3556 171.508 32.1314 172.586 31.2778C173.687 30.4018 175.091 29.9638 176.798 29.9638ZM196.671 24C197.098 24 197.569 24.0337 198.086 24.1011C198.625 24.1685 199.052 24.2583 199.366 24.3706V27.1335H197.85C196.974 27.1335 196.536 27.5715 196.536 28.4476V30.3344H199.366V33.4679H196.536V46.6422H192.83V33.4679H191.18V30.3344H192.83V28.3465C192.83 27.1111 193.122 26.0778 193.706 25.2467C194.313 24.4156 195.301 24 196.671 24ZM207.149 29.9638C209.35 29.9638 210.977 30.6601 212.033 32.0528C213.111 33.4455 213.65 35.6019 213.65 38.522C213.65 41.4196 213.111 43.5648 212.033 44.9575C210.955 46.3277 209.327 47.0128 207.149 47.0128C204.947 47.0128 203.307 46.3277 202.229 44.9575C201.151 43.5648 200.612 41.4196 200.612 38.522C200.612 35.6019 201.151 33.4455 202.229 32.0528C203.307 30.6601 204.947 29.9638 207.149 29.9638ZM207.149 33.131C206.205 33.131 205.532 33.5241 205.126 34.3103C204.722 35.0965 204.52 36.2982 204.52 37.9155V39.0611C204.52 40.7008 204.722 41.9138 205.126 42.7C205.532 43.4862 206.205 43.8793 207.149 43.8793C208.092 43.8793 208.766 43.4862 209.17 42.7C209.574 41.9138 209.776 40.7008 209.776 39.0611V37.9155C209.776 36.2982 209.574 35.0965 209.17 34.3103C208.766 33.5241 208.092 33.131 207.149 33.131ZM223.113 29.9638C223.54 29.9638 223.889 29.9975 224.159 30.0649C224.428 30.1323 224.596 30.1772 224.663 30.1996V33.8049H223.35C222.452 33.8049 221.721 34.0969 221.159 34.6809C220.598 35.2649 220.318 36.2308 220.318 37.5786V46.6422H216.612V30.3344H219.677L220.116 32.7267H220.318C220.588 31.918 220.935 31.2554 221.361 30.7387C221.788 30.2221 222.372 29.9638 223.113 29.9638ZM240.832 29.9638C242.494 29.9638 243.786 30.6714 244.707 32.0865C245.628 33.5016 246.087 35.6468 246.087 38.522C246.087 41.3523 245.628 43.475 244.707 44.8901C243.786 46.3052 242.574 47.0128 241.069 47.0128C240.238 47.0128 239.484 46.8331 238.811 46.4737C238.159 46.1143 237.688 45.6089 237.396 44.9575H237.261V51.9995H233.555V30.3344H236.622L237.026 32.356H237.161C237.565 31.5698 238.082 30.9746 238.71 30.5703C239.362 30.1659 240.068 29.9638 240.832 29.9638ZM239.721 33.3668C238.845 33.3668 238.216 33.7487 237.835 34.5124C237.453 35.2762 237.261 36.4105 237.261 37.9155V39.0274C237.261 40.5548 237.453 41.7117 237.835 42.4978C238.216 43.2616 238.845 43.6434 239.721 43.6434C240.597 43.6434 241.226 43.2616 241.608 42.4978C242.012 41.7341 242.214 40.5885 242.214 39.0611V37.9155C242.214 36.388 242.012 35.2537 241.608 34.5124C241.226 33.7487 240.597 33.3668 239.721 33.3668ZM254.575 29.9638C256.552 29.9638 258.024 30.6601 258.989 32.0528C259.978 33.4455 260.472 35.6019 260.472 38.522V39.4317H252.217C252.239 40.9592 252.431 42.1047 252.791 42.8685C253.172 43.6097 253.812 43.9804 254.71 43.9804C255.361 43.9804 255.868 43.7108 256.227 43.1717C256.609 42.6101 256.799 41.8464 256.799 40.8805H260.472C260.472 42.9022 259.943 44.4296 258.887 45.4629C257.832 46.4962 256.439 47.0128 254.71 47.0128C250.443 47.0128 248.309 44.1825 248.309 38.522C248.309 32.8165 250.398 29.9638 254.575 29.9638ZM254.575 32.9962C253.811 32.9962 253.24 33.3107 252.858 33.9396C252.499 34.5686 252.296 35.5008 252.252 36.7362H256.596C256.596 35.5232 256.429 34.6023 256.092 33.9733C255.755 33.3219 255.249 32.9962 254.575 32.9962ZM268.218 29.9638C270.06 29.9638 271.44 30.3793 272.361 31.2104C273.282 32.0416 273.743 33.2208 273.743 34.7483V42.8011C273.743 43.1605 273.821 43.43 273.978 43.6097C274.158 43.7894 274.372 43.8793 274.619 43.8793H275.36V46.5074C274.776 46.8443 274.035 47.0128 273.137 47.0128C272.418 47.0128 271.8 46.8219 271.283 46.44C270.789 46.0357 270.452 45.519 270.272 44.8901H270.138C269.621 45.6089 269.049 46.148 268.42 46.5074C267.814 46.8443 267.005 47.0128 265.995 47.0128C264.962 47.0128 264.018 46.6759 263.165 46.002C262.311 45.3056 261.885 44.1151 261.885 42.4305C261.885 40.3414 262.591 38.8701 264.006 38.0166C265.421 37.163 267.42 36.7362 270.003 36.7362V35.0515C270.003 34.4001 269.88 33.8947 269.633 33.5353C269.386 33.1759 268.937 32.9962 268.286 32.9962C267.612 32.9962 267.118 33.1759 266.803 33.5353C266.511 33.8723 266.364 34.2653 266.364 34.7146V35.1863H262.693C262.671 35.074 262.659 34.8381 262.659 34.4787C262.659 33.131 263.165 32.0416 264.176 31.2104C265.186 30.3793 266.534 29.9638 268.218 29.9638ZM270.003 39.4317C267.15 39.4317 265.725 40.319 265.725 42.0935C265.725 43.3065 266.332 43.913 267.545 43.913C268.376 43.913 268.992 43.5873 269.396 42.9359C269.801 42.262 270.003 41.4084 270.003 40.3751V39.4317ZM282.905 29.9638C284.702 29.9638 286.094 30.5029 287.082 31.5811C288.093 32.6368 288.597 34.2653 288.597 36.4667H284.824C284.824 34.2429 284.185 33.131 282.905 33.131C282.141 33.131 281.59 33.5241 281.253 34.3103C280.916 35.0965 280.749 36.2982 280.749 37.9155V39.0611C280.749 40.7008 280.916 41.9138 281.253 42.7C281.612 43.4862 282.196 43.8793 283.005 43.8793C283.679 43.8793 284.163 43.6097 284.455 43.0706C284.769 42.5091 284.926 41.6555 284.926 40.5099H288.597C288.597 42.7112 288.103 44.351 287.115 45.4292C286.149 46.4849 284.779 47.0128 283.005 47.0128C280.894 47.0128 279.334 46.3277 278.323 44.9575C277.335 43.5873 276.841 41.4421 276.841 38.522C276.841 35.6019 277.345 33.4455 278.356 32.0528C279.366 30.6601 280.883 29.9638 282.905 29.9638ZM296.918 29.9638C298.894 29.9638 300.366 30.6601 301.332 32.0528C302.32 33.4455 302.814 35.6019 302.814 38.522V39.4317H294.559C294.582 40.9592 294.774 42.1047 295.133 42.8685C295.515 43.6097 296.154 43.9804 297.052 43.9804C297.704 43.9804 298.21 43.7108 298.569 43.1717C298.951 42.6101 299.141 41.8464 299.141 40.8805H302.814C302.814 42.9022 302.285 44.4296 301.23 45.4629C300.174 46.4962 298.782 47.0128 297.052 47.0128C292.785 47.0128 290.651 44.1825 290.651 38.522C290.651 32.8165 292.74 29.9638 296.918 29.9638ZM296.918 32.9962C296.154 32.9962 295.582 33.3107 295.2 33.9396C294.841 34.5686 294.639 35.5008 294.594 36.7362H298.939C298.939 35.5232 298.771 34.6023 298.435 33.9733C298.098 33.3219 297.591 32.9962 296.918 32.9962Z" fill="#1E3F85"/>
</svg>
